<svg width="60" height="56" viewBox="0 0 60 56" fill="none" xmlns="http://www.w3.org/2000/svg">
<path d="M24.2063 34.8819V8.55311C24.2063 6.53623 24.1078 1.81123 30.2016 1.81123C36.2953 1.81123 36.0938 6.78998 36.0938 8.57936C36.0938 10.3687 35.9531 34.9169 35.9531 34.9169C35.9531 34.9169 41.4094 37.73 41.2125 44.38C41.0391 50.3081 36.2484 54.2893 29.5641 54.1975C22.8797 54.1056 18.5531 49.0612 18.5531 43.9687C18.5531 37.3581 24.2063 34.8819 24.2063 34.8819Z" fill="#A8D0D6"/>
<path d="M32.2312 20.72L27.1969 18.9C27.1969 18.9 27.1969 9.9575 27.2531 8.6975C27.3094 7.43312 27.6844 5.68312 30.3375 5.71812C32.9906 5.75312 33.2578 7.58625 33.3141 8.89875C33.3516 9.75625 33.225 18.9787 33.225 18.9787L32.2312 20.72Z" fill="white"/>
<path d="M32.0672 38.045C32.0672 38.045 22.4437 41.3787 22.4672 43.3169C22.5094 46.5237 24.1969 50.6494 29.8312 50.7062C34.5937 50.7544 37.2516 47.95 37.1859 43.5925C37.1109 38.2856 32.8125 37.135 32.8125 37.135L32.0672 38.045Z" fill="#DD0B2B"/>
<path d="M27.5062 18.6506L33.2297 18.6725L33.1875 37.2969C33.1875 37.2969 36.8297 40.6831 35.0297 45.2725C33.5016 49.175 28.1953 50.1069 24.9187 47.6962C21.1781 44.9444 22.4953 41.0856 23.9203 39.1912C25.3453 37.2969 27.4219 37.0519 27.4219 37.0519L27.5062 18.6506Z" fill="#E7523C"/>
<path d="M29.3953 18.655C29.3953 18.655 29.2922 39.0862 29.2828 40.2806C29.2687 41.7506 29.3625 43.7544 26.6719 43.7412C24.0328 43.7281 23.6953 40.9237 24.8906 39.865C25.7812 39.0819 27.0328 39.2569 27.0328 39.2569L27.1781 18.6506L29.3953 18.655Z" fill="#FED0BE"/>
<path d="M27.4172 7.7C25.9031 7.7 24.9703 7.58625 24.9281 8.75C24.8813 9.89625 25.9172 9.82625 27.4172 9.82625C28.8703 9.82625 29.8453 9.9225 29.8453 8.77625C29.8453 7.52938 28.8563 7.7 27.4172 7.7Z" fill="#4B4A51"/>
<path d="M27.3281 13.6369C25.7297 13.6369 24.9656 13.5669 24.9234 14.6606C24.8766 15.8769 25.8844 15.7675 27.3422 15.7369C28.8 15.7106 29.8313 15.9206 29.8453 14.7831C29.8594 13.5844 29.0391 13.6369 27.3281 13.6369Z" fill="#4B4A51"/>
<path d="M27.4078 19.4731C25.8938 19.4731 24.961 19.3594 24.9188 20.5231C24.8719 21.6694 25.9078 21.5994 27.4078 21.5994C28.861 21.5994 29.836 21.6956 29.836 20.5494C29.8406 19.3069 28.8469 19.4731 27.4078 19.4731Z" fill="#4B4A51"/>
<path d="M27.3656 25.48C25.7719 25.48 24.9937 25.41 24.9703 26.5038C24.9422 27.7113 25.8844 27.6063 27.3328 27.615C28.7859 27.6238 29.9016 27.615 29.8734 26.6307C29.8453 25.4232 29.0719 25.48 27.3656 25.48Z" fill="#4B4A51"/>
<path d="M27.4687 31.6094C25.9547 31.6094 25.0219 31.4956 24.9797 32.6594C24.9328 33.8056 25.9687 33.7356 27.4687 33.7356C28.9219 33.7356 29.8969 33.8319 29.8969 32.6856C29.9016 31.4431 28.9125 31.6094 27.4687 31.6094Z" fill="#4B4A51"/>
</svg>
